<?xml version="1.0" standalone="no"?>
<!DOCTYPE svg PUBLIC "-//W3C//DTD SVG 20010904//EN"
 "http://www.w3.org/TR/2001/REC-SVG-20010904/DTD/svg10.dtd">
<svg version="1.0" xmlns="http://www.w3.org/2000/svg"
 width="260.000000pt" height="260.000000pt" viewBox="0 0 260.000000 260.000000"
 preserveAspectRatio="xMidYMid meet">
<metadata>
Created by potrace 1.14, written by Peter Selinger 2001-2017
</metadata>
<g transform="translate(0.000000,260.000000) scale(0.100000,-0.100000)"
fill="#000000" stroke="none">
<path d="M1171 2579 c-154 -34 -326 -133 -436 -251 -42 -43 -123 -154 -137
-185 -1 -5 -41 -33 -87 -63 -46 -30 -89 -59 -95 -65 -6 -5 -29 -23 -51 -40
-51 -38 -184 -169 -222 -220 -88 -115 -140 -258 -141 -385 l0 -75 13 77 c16
94 29 136 68 212 97 196 341 419 603 553 56 28 76 44 81 63 38 159 233 209
337 88 112 -131 20 -325 -151 -321 -34 1 -65 9 -87 22 l-34 21 -77 -40 c-313
-165 -567 -449 -594 -665 -25 -192 107 -372 321 -439 15 -4 17 -39 17 -403 0
-219 0 -413 0 -432 l1 -34 60 6 c129 14 257 76 348 169 81 83 127 168 158 293
4 17 8 100 10 185 5 335 9 362 69 479 34 68 113 159 175 203 85 61 212 104
300 103 29 0 35 -4 35 -22 0 -29 10 -38 12 -11 3 33 35 71 78 92 32 16 45 17
77 9 35 -9 43 -7 102 27 265 155 468 350 530 510 34 85 18 207 -35 282 -76
106 -258 149 -431 100 l-66 -19 -69 46 c-74 50 -184 103 -248 120 -81 21 -102
23 -225 26 -96 3 -145 -1 -209 -16z m1104 -310 c50 -14 109 -74 122 -125 14
-57 8 -101 -24 -161 -27 -51 -121 -171 -135 -172 -3 -1 -9 18 -13 42 -19 122
-93 314 -143 370 -18 21 -17 23 34 41 48 18 106 20 159 5z m-782 -275 c173
-90 212 -323 77 -463 -78 -80 -214 -107 -315 -62 -267 118 -219 499 69 550 47
8 127 -4 169 -25z m-994 -599 c-1 -173 -5 -317 -9 -320 -5 -3 -33 4 -63 15
-142 53 -203 219 -133 359 39 76 179 261 198 261 5 0 7 -142 7 -315z"/>
<path d="M897 2238 c-22 -18 -30 -35 -34 -70 -5 -40 -2 -50 20 -72 97 -97 233
25 149 133 -28 35 -98 40 -135 9z"/>
<path d="M2567 2200 c4 -14 7 -57 6 -95 -1 -79 -30 -162 -83 -242 -73 -108
-289 -302 -536 -480 -18 -13 -34 -34 -37 -52 -4 -18 -21 -40 -43 -57 -67 -52
-159 -31 -194 44 -8 17 -17 32 -20 32 -3 0 -5 -97 -5 -215 0 -151 3 -215 11
-215 17 0 161 76 206 109 150 111 268 273 319 441 15 50 28 73 47 86 15 9 81
71 147 138 96 97 128 136 158 196 45 89 51 113 51 205 0 48 -6 80 -18 100 -14
26 -16 26 -9 5z"/>
<path d="M1780 1442 c-49 -16 -68 -83 -32 -115 42 -38 112 -6 112 51 0 40 -44
76 -80 64z"/>
</g>
</svg>
