<svg width="82" height="139" viewBox="0 0 82 139" fill="none" xmlns="http://www.w3.org/2000/svg">
<path opacity="0.7" d="M8.5 139C-32.094 139 -65 107.885 -65 69.5C-65 31.1152 -32.094 0 8.5 0C49.094 0 82 31.1152 82 69.5C82 107.885 49.094 139 8.5 139ZM8.5 125.1C24.0947 125.1 39.0507 119.242 50.0779 108.815C61.105 98.3881 67.3 84.246 67.3 69.5C67.3 54.754 61.105 40.6119 50.0779 30.1849C39.0507 19.7578 24.0947 13.9 8.5 13.9C-7.09473 13.9 -22.0507 19.7578 -33.0779 30.1849C-44.105 40.6119 -50.3 54.754 -50.3 69.5C-50.3 84.246 -44.105 98.3881 -33.0779 108.815C-22.0507 119.242 -7.09473 125.1 8.5 125.1ZM-17.225 83.4H23.2C24.1747 83.4 25.1094 83.0339 25.7986 82.3822C26.4878 81.7305 26.875 80.8466 26.875 79.925C26.875 79.0034 26.4878 78.1195 25.7986 77.4678C25.1094 76.8161 24.1747 76.45 23.2 76.45H-6.2C-11.0734 76.45 -15.7471 74.6194 -19.1931 71.361C-22.6391 68.1025 -24.575 63.6831 -24.575 59.075C-24.575 54.4669 -22.6391 50.0475 -19.1931 46.789C-15.7471 43.5306 -11.0734 41.7 -6.2 41.7H1.15V27.8H15.85V41.7H34.225V55.6H-6.2C-7.17467 55.6 -8.10942 55.9661 -8.79862 56.6178C-9.48782 57.2695 -9.875 58.1534 -9.875 59.075C-9.875 59.9966 -9.48782 60.8805 -8.79862 61.5322C-8.10942 62.1839 -7.17467 62.55 -6.2 62.55H23.2C28.0733 62.55 32.7471 64.3806 36.1931 67.639C39.6391 70.8975 41.575 75.3169 41.575 79.925C41.575 84.5331 39.6391 88.9525 36.1931 92.211C32.7471 95.4694 28.0733 97.3 23.2 97.3H15.85V111.2H1.15V97.3H-17.225V83.4Z" fill="#FFB800"/>
</svg>
