<svg width="21" height="21" viewBox="0 0 21 21" fill="none" xmlns="http://www.w3.org/2000/svg">
<path opacity="0.34" d="M10.5 21C4.70085 21 0 16.2991 0 10.5C0 4.70085 4.70085 0 10.5 0C16.2991 0 21 4.70085 21 10.5C21 16.2991 16.2991 21 10.5 21ZM7.2345 11.7285L7.24815 11.7211L8.16165 14.7347C8.27925 15.0612 8.44095 15.12 8.6373 15.0927C8.8347 15.0665 8.93865 14.9604 9.0678 14.8365L10.3152 13.6311L12.9927 15.6135C13.482 15.8834 13.8338 15.7437 13.9556 15.1599L15.6954 6.9468C15.8875 6.1824 15.5515 5.8758 14.9583 6.1194L4.73865 10.0674C4.04145 10.3467 4.04565 10.7373 4.61265 10.9105L7.2345 11.7295V11.7285Z" fill="black"/>
</svg>
