<svg width="25" height="21" viewBox="0 0 25 21" fill="none" xmlns="http://www.w3.org/2000/svg">
<path opacity="0.34" d="M24.9988 2.49293C24.0624 2.92082 23.0695 3.20183 22.0528 3.32667C23.1245 2.66454 23.9265 1.62246 24.3095 0.394634C23.3038 1.01297 22.2012 1.44632 21.0521 1.68073C20.2801 0.827444 19.257 0.261543 18.1416 0.0710009C17.0263 -0.119542 15.8813 0.0759505 14.8845 0.627085C13.8878 1.17822 13.0953 2.05412 12.6301 3.11861C12.165 4.1831 12.0533 5.37654 12.3124 6.5134C10.2729 6.40779 8.27773 5.86024 6.4564 4.9063C4.63506 3.95237 3.02827 2.61336 1.74034 0.976227C1.28445 1.7852 1.04488 2.70482 1.04616 3.64091C1.04616 5.47818 1.95129 7.10132 3.32736 8.05164C2.51301 8.02515 1.71658 7.79794 1.00446 7.38895V7.45484C1.00471 8.67847 1.41455 9.86435 2.1645 10.8114C2.91445 11.7585 3.95835 12.4085 5.11921 12.6512C4.36324 12.8628 3.57058 12.894 2.80122 12.7424C3.12852 13.7956 3.76644 14.7168 4.62568 15.3768C5.48491 16.0368 6.52243 16.4027 7.59297 16.4233C6.52899 17.2866 5.31076 17.9248 4.0079 18.3013C2.70504 18.6779 1.34312 18.7854 0 18.6179C2.34461 20.1757 5.07395 21.0027 7.86156 21C17.2967 21 22.4563 12.9249 22.4563 5.92167C22.4563 5.69359 22.4502 5.46298 22.4404 5.23744C23.4447 4.48754 24.3115 3.55857 25 2.4942L24.9988 2.49293Z" fill="black"/>
</svg>
