<svg width="27" height="21" viewBox="0 0 27 21" fill="none" xmlns="http://www.w3.org/2000/svg">
<path opacity="0.34" d="M26.383 3.27863C27 5.6175 27 10.5 27 10.5C27 10.5 27 15.3825 26.383 17.7214C26.0401 19.0142 25.0371 20.0314 23.7667 20.3753C21.4596 21 13.5 21 13.5 21C13.5 21 5.54445 21 3.23325 20.3753C1.9575 20.0261 0.9558 19.0103 0.61695 17.7214C4.02331e-08 15.3825 0 10.5 0 10.5C0 10.5 4.02331e-08 5.6175 0.61695 3.27863C0.95985 1.98581 1.9629 0.968625 3.23325 0.62475C5.54445 -2.34693e-07 13.5 0 13.5 0C13.5 0 21.4596 -2.34693e-07 23.7667 0.62475C25.0425 0.973875 26.0442 1.98975 26.383 3.27863V3.27863ZM10.8 15.0938L18.9 10.5L10.8 5.90625V15.0938Z" fill="black"/>
</svg>
